<svg xmlns="http://www.w3.org/2000/svg" xmlns:xlink="http://www.w3.org/1999/xlink" viewBox="0 0 449 449"><defs><style>.cls-1{fill:url(#linear-gradient);}.cls-2{fill:#fff;}</style><linearGradient id="linear-gradient" x1="336.77" y1="418.96" x2="112.23" y2="30.04" gradientUnits="userSpaceOnUse"><stop offset="0" stop-color="#0071bc"/><stop offset="1" stop-color="#29abe2"/></linearGradient></defs><g id="Layer_2" data-name="Layer 2"><g id="Layer_1-2" data-name="Layer 1"><circle class="cls-1" cx="224.5" cy="224.5" r="224.5"/><path class="cls-2" d="M255.42,231c.1-2.12.16-4.25.16-6.39s-.06-4.42-.17-6.61a101.48,101.48,0,0,1,157.25-78.25,126,126,0,0,0-188.25,1.92,126,126,0,0,0-188.07-1.73A101.48,101.48,0,0,1,193.58,218c-.1,2.12-.16,4.25-.16,6.39s.06,4.42.17,6.61A101.48,101.48,0,0,1,36.34,309.26a126,126,0,0,0,188.25-1.92,126,126,0,0,0,188.07,1.73A101.48,101.48,0,0,1,255.42,231Z"/></g></g></svg>